<svg version="1.1" id="svg1398" height="100%" viewBox="0 0 1920 1038" sodipodi:docname="body_00037.jpg" inkscape:version="0.0" xmlns:inkscape="http://www.inkscape.org/namespaces/inkscape" xmlns:sodipodi="http://sodipodi.sourceforge.net/DTD/sodipodi-0.dtd" xmlns="http://www.w3.org/2000/svg" xmlns:svg="http://www.w3.org/2000/svg"> <defs id="defs1402"></defs> <sodipodi:namedview id="namedview1400" pagecolor="#ffffff" bordercolor="#000000" borderopacity="0.25" inkscape:showpageshadow="2" inkscape:pageopacity="0.0" inkscape:pagecheckerboard="0" inkscape:deskcolor="#d1d1d1" showgrid="false" inkscape:zoom="0.98360819" inkscape:cx="1041.0649" inkscape:cy="371.08272" inkscape:window-width="1440" inkscape:window-height="900" inkscape:window-x="0" inkscape:window-y="0" inkscape:window-maximized="0" inkscape:current-layer="g1404"></sodipodi:namedview> <g inkscape:groupmode="layer" inkscape:label="Image" id="g1404"> <g id="g1475" inkscape:label="extremites" class="svgHover" data-type="SVGextremites" data-tooltip="Extrémités supérieurs"> <path id="path1440" style="fill:#000000" d="m 690.35547,431.36328 a 51.829254,63.577217 0 0 0 -0.0117,-0.0234 51.829254,63.577217 0 0 0 -2.30273,-3.82617 51.829254,63.577217 0 0 0 -2.52735,-3.60351 51.829254,63.577217 0 0 0 -2.74023,-3.36133 51.829254,63.577217 0 0 0 -2.9375,-3.10156 51.829254,63.577217 0 0 0 -3.11914,-2.82227 51.829254,63.577217 0 0 0 -3.28125,-2.5293 51.829254,63.577217 0 0 0 -3.42774,-2.22265 51.829254,63.577217 0 0 0 -2.68554,-1.43555 c -4.81199,5.25619 -5.45048,5.36301 -13.33789,5.87695 -5.27108,0.34346 -10.34376,1.34017 -13.31836,2.61524 -2.64284,1.13285 -8.20834,2.93068 -12.36719,3.99609 -13.89705,3.5601 -11.676,10.79581 3.1875,10.38281 8.58338,-0.23849 8.30503,3.04848 -1.37891,16.24024 -2.5337,3.45145 -7.04364,9.67016 -10.02148,13.82031 -2.97787,4.15015 -5.85969,7.27018 -6.4043,6.93359 -0.55433,-0.34259 -0.67617,-0.10431 -0.27734,0.54102 0.39185,0.63401 0.0112,2.15361 -0.84571,3.37695 -7.08932,10.12144 2.45857,10.98015 11.01172,0.99024 10.06173,-11.75191 14.03623,-13.48973 8.52735,-3.72852 -7.34435,13.01346 -10.09952,23.94346 -6.85352,27.18946 2.82205,2.82203 6.07747,-0.55008 12.89844,-13.35938 7.08131,-13.29824 7.31041,-13.26796 6.03906,0.77148 -1.14241,12.61549 0.65127,19.91602 4.89063,19.91602 2.21458,0 4.98054,-4.17889 4.81835,-7.2793 -0.18544,-3.54543 1.71377,-14.58836 3.10157,-18.0332 0.98539,-2.44594 1.01929,-2.33396 1.58984,5.18945 0.58219,7.67691 4.0469,13.62305 7.9375,13.62305 3.3494,0 3.22129,0.87665 2.04297,-13.89844 -0.54838,-6.87615 -0.38659,-8.1714 1.25391,-10 4.35753,-4.85717 14.26156,-24.79094 17.16992,-34.55664 0.83558,-2.80571 1.91783,-5.3147 3.36914,-7.68164 z"></path> <path id="path1454" style="fill:#000000" d="m 1254.5898,411.17188 a 76.707298,83.617867 0 0 0 -11.1503,6.49804 76.707298,83.617867 0 0 0 -11.6231,10.39844 76.707298,83.617867 0 0 0 -2.582,3.42969 c 1.2055,1.70344 2.1344,3.28071 2.3886,4.41797 2.3436,10.48337 5.7023,18.32495 12.2188,28.52929 1.7371,2.72018 3.1582,5.46364 3.1582,6.09571 0,0.63206 0.9,1.96349 2,2.95898 2.2457,2.0323 2.8258,12.13183 1.0527,18.31445 -1.2145,4.23479 -0.4304,6.18555 2.4825,6.18555 4.4779,0 8.3278,-8.47468 8.541,-18.79883 0.1177,-5.6991 3.8926,7.54831 4.3593,15.29883 0.1988,3.3 0.4069,6.32169 0.4629,6.71484 0.2368,1.66271 4.1248,2.8432 6.0215,1.82813 4.1085,-2.19878 4.797,-9.78667 2.4453,-26.92383 -0.8068,-5.87926 0.647,-4.79799 4.9043,3.65234 8.7309,17.33028 11.117,19.99857 14.8555,16.61524 1.7198,-1.5564 1.955,-2.55821 1.3789,-5.88086 -0.3819,-2.20304 -0.7646,-4.97518 -0.8496,-6.16016 -0.085,-1.18498 -0.4786,-1.95395 -0.875,-1.70898 -0.3964,0.24497 -1.0193,-0.81073 -1.3848,-2.3457 -0.3655,-1.535 -2.2163,-5.60131 -4.1133,-9.03711 -3.8926,-7.05058 -3.9965,-10.12608 -0.207,-6.1543 1.3343,1.39857 5.2909,5.54741 8.793,9.2207 6.6973,7.02478 8.0086,7.65933 10.5605,5.10742 2.1906,-2.19062 0.2699,-6.58674 -7.3984,-16.92773 -2.9145,-3.93028 -11.4111,-15.75652 -15.7227,-21.88477 -4.5184,-6.42237 -3.2512,-9.34394 3.9981,-9.22851 14.8078,0.23579 16.3126,-7.04291 2.1953,-10.61719 -8.2924,-2.09952 -12.6226,-3.75999 -12.082,-4.63476 0.2155,-0.34867 -0.5787,-0.71195 -1.7637,-0.80665 -16.8068,-1.34325 -19.0795,-1.29938 -22.0645,-4.15624 z"></path> </g> <g id="g1471" inkscape:label="articulations" class="svgHover" data-type="SVGarticulations" data-tooltip="Membres et articulations"> <path id="path1464" style="fill:#000000" d="m 847.22266,199.04492 c -14.90035,6.41879 -28.32921,24.0007 -37.66602,50.14258 -1.23312,3.45261 -2.97364,5.6776 -6.60547,8.44727 -2.7118,2.06802 -10.44802,10.48051 -17.1914,18.69531 -6.74339,8.21481 -13.15977,16.00419 -14.25977,17.30859 -2.4193,2.86886 -9.40516,6.53759 -10.80273,5.67383 -0.55364,-0.34217 -0.71194,-0.14365 -0.35157,0.43945 0.36038,0.5831 -1.60924,2.68543 -4.37695,4.67383 -4.93078,3.54241 -12.32207,9.97058 -22.64063,19.68555 -6.21259,5.84918 -17.7986,21.08931 -22.34179,29.38867 -8.20795,14.99402 -18.63987,29.83289 -20.26563,28.82812 -0.61754,-0.38164 -0.72457,-0.14375 -0.26758,0.59571 0.49402,0.79934 -2.1801,4.11807 -7.5957,9.42578 -4.59684,4.50525 -11.05742,11.16562 -14.35742,14.80078 -0.44208,0.48698 -0.79498,0.86903 -1.17773,1.28711 a 51.829254,63.577217 0 0 1 2.68554,1.43555 51.829254,63.577217 0 0 1 3.42774,2.22265 51.829254,63.577217 0 0 1 3.28125,2.5293 51.829254,63.577217 0 0 1 3.11914,2.82227 51.829254,63.577217 0 0 1 2.9375,3.10156 51.829254,63.577217 0 0 1 2.74023,3.36133 51.829254,63.577217 0 0 1 2.52735,3.60351 51.829254,63.577217 0 0 1 2.30273,3.82617 51.829254,63.577217 0 0 1 0.0117,0.0234 c 3.0988,-5.05384 7.89224,-9.45535 15.64453,-14.68164 4.125,-2.78091 9.67853,-6.77312 12.3418,-8.87109 2.66324,-2.09799 5.32008,-3.51927 5.90429,-3.15821 0.60796,0.37574 0.7715,0.1848 0.38086,-0.44726 -0.37538,-0.60738 0.23788,-1.59692 1.36328,-2.19922 10.29452,-5.50948 37.4747,-30.82942 42.94532,-40.00586 2.13124,-3.575 5.0416,-7.59046 6.46875,-8.92383 1.42715,-1.33338 2.5957,-2.91613 2.5957,-3.51758 0,-4.17437 11.36646,-14.13031 22.83594,-20 2.56487,-1.3126 6.46406,-4.28263 8.66406,-6.60156 2.2,-2.31894 10.30002,-9.28178 18,-15.47265 22.231,-17.87399 30.36686,-27.71164 34.6543,-41.9004 2.33687,-7.73365 3.0795,-6.87296 3.79882,6.00196 0.14005,-0.51333 0.27261,-1.03579 0.36719,-1.60742 0.23283,-1.40709 0.3314,-2.98554 0.3125,-4.70508 -0.0189,-1.71954 -0.15375,-3.58073 -0.39062,-5.55469 -0.23688,-1.97396 -0.57498,-4.06012 -0.9961,-6.23047 -0.42111,-2.17035 -0.92644,-4.42373 -1.49804,-6.73242 -0.57161,-2.30869 -1.21008,-4.6735 -1.89844,-7.0625 -1.37671,-4.77801 -2.95249,-9.6572 -4.59375,-14.4082 -1.64126,-4.75101 -3.34656,-9.3731 -4.98242,-13.63282 -1.63586,-4.2597 -3.20199,-8.15683 -4.5625,-11.46093 -0.28771,-0.69872 -0.2202,-0.50308 -0.48828,-1.14649 z"></path> <path id="path1458" style="fill:#000000" d="m 951.92578,540.5293 c -1.04564,-0.0261 -2.10546,-0.0237 -3.13867,-0.0762 -2.14099,-0.10882 -4.25505,-0.27373 -6.3418,-0.49023 -2.08675,-0.2165 -4.14641,-0.48427 -6.17773,-0.80078 -2.03133,-0.31651 -4.03309,-0.68101 -6.00781,-1.08984 -1.97473,-0.40884 -3.92096,-0.86198 -5.83789,-1.35547 -1.91694,-0.49349 -3.8061,-1.02719 -5.66407,-1.59766 -1.85797,-0.57047 -3.68459,-1.17859 -5.48242,-1.81836 -1.79782,-0.63977 -3.56624,-1.31228 -5.30273,-2.01367 -1.7365,-0.70139 -3.44125,-1.43021 -5.11524,-2.18555 -3.34798,-1.51067 -6.57125,-3.12233 -9.66211,-4.80273 -3.09085,-1.6804 -6.05071,-3.43004 -8.875,-5.21875 -2.82428,-1.78872 -5.51228,-3.61751 -8.06054,-5.45313 -2.54827,-1.83561 -4.95595,-3.67889 -7.21875,-5.5 -2.13413,-1.71754 -4.11429,-3.40898 -5.98633,-5.06054 -1.4237,9.76006 -3.03012,19.68793 -4.6211,27.93359 -5.89572,30.55612 -6.98643,89.00866 -1.91797,102.8418 0.27047,0.73818 0.75115,8.83819 1.06641,18 1.12476,32.6871 -3.6277,64.52697 -13.20117,88.45508 -10.80469,27.00545 -9.80123,48.20699 4.57422,96.70312 2.78859,9.4074 4.01503,15.70066 5.55469,28.5 0.26465,2.2 0.95649,7.825 1.53711,12.5 2.7128,21.84268 -4.24246,33.83047 -20.79688,35.84766 -0.6875,0.0838 -1.25,1.07847 -1.25,2.21093 0,1.2124 -0.44193,1.78727 -1.07422,1.39649 -0.74043,-0.4576 -0.77882,-0.0894 -0.12305,1.18945 C 834.12601,921.225 836,927.349 836,929.09375 c 0,0.79838 1.62995,2.32898 3.62305,3.40234 4.35806,2.34697 5.98827,4.69108 6.95898,10.00391 0.98062,5.36699 4.07601,9.3787 8.91797,11.55859 2.61737,1.17837 6.55312,1.8249 11.38477,1.8711 15.59911,0.14923 19.32157,-3.37723 18.4414,-17.4668 -0.27357,-4.37931 -0.50372,-8.41289 -0.51172,-8.96289 -0.008,-0.55 0.97719,-4.825 2.1875,-9.5 1.77833,-6.86906 2.07958,-10.035 1.57227,-16.5 -1.72487,-21.9811 -1.73639,-26.09598 -0.12891,-42.17578 1.91568,-19.16283 3.88682,-28.38436 10.01367,-46.82422 6.51723,-19.61477 8.20918,-33.98435 6.12696,-52.0293 -3.18378,-27.59125 0.78977,-50.79901 12.67383,-74.03711 6.62816,-12.96071 11.90621,-34.54521 13.3125,-54.43359 0.39048,-5.5223 1.93307,-12.87897 4.40039,-21 2.08874,-6.87499 4.96641,-16.57011 6.39648,-21.54492 2.88099,-10.02215 9.05631,-40.11991 10.55664,-50.92578 z"></path> <path id="path1456" style="fill:#000000" d="m 1056.8281,507.11133 c -0.3992,0.27032 -0.7381,0.52449 -1.1465,0.79687 -2.3053,1.53767 -4.7562,3.10713 -7.3476,4.6836 -2.5915,1.57647 -5.3246,3.16041 -8.1914,4.73047 -2.8668,1.57006 -5.8687,3.12609 -9,4.64453 -3.1314,1.51843 -6.3923,3.00028 -9.7774,4.42187 -3.3851,1.42159 -6.8934,2.78297 -10.5214,4.0625 -3.6281,1.27954 -7.3762,2.4761 -11.23638,3.56836 -3.86019,1.09226 -7.83251,2.07968 -11.91406,2.93945 -2.04078,0.42989 -4.10904,0.82813 -6.20313,1.19141 -2.09409,0.36329 -4.21527,0.69139 -6.36132,0.98242 -2.14606,0.29104 -4.31701,0.54469 -6.51368,0.75781 -0.49703,0.0482 -1.00823,0.0731 -1.50781,0.11719 0.6081,4.21061 1.31897,8.85968 1.78906,10.60547 0.59536,2.21101 1.94706,8.93958 3.00391,14.95313 1.9132,10.88628 7.41442,31.88184 13,49.61718 3.17185,10.07123 3.72043,13.09331 4.60742,25.31641 1.28132,17.65734 4.01915,28.14196 12.57419,48.16602 13.6055,31.84545 15.298,41.61619 12.8106,73.9082 -1.5982,20.74813 -0.1664,33.78395 5.5898,50.92578 9.9869,29.74115 13.572,59.56757 10.3184,85.84766 -1.1532,9.3146 -1.0898,10.34342 1.1719,19 1.8909,7.23758 2.336,11.21205 2.1269,18.99609 -0.4243,15.8042 2.2999,18.67847 17.6699,18.63477 12.6786,-0.036 19.8617,-4.91514 21.2344,-14.42579 0.3684,-2.55317 1.0584,-3.95048 1.8652,-3.77734 0.7043,0.15112 1.0206,-0.14667 0.7032,-0.66016 -0.5526,-0.89423 4.1975,-5.53916 6.4238,-6.28125 3.8962,-1.29874 4.1409,-18.32024 0.2539,-17.66406 -1.9938,0.33659 -8.9632,-3.08696 -13.8066,-6.78125 -5.8338,-4.4496 -7.4611,-18.92309 -4.0762,-36.25 0.8983,-4.59825 1.6404,-10.67326 1.6504,-13.5 0.016,-4.85667 2.4517,-15.89153 4.8222,-21.8457 12.4518,-31.27617 14.1415,-69.71309 4.1446,-94.29297 -11.6152,-28.55925 -16.6179,-75.21707 -11.7403,-109.5 3.9997,-28.11249 3.4446,-68.94949 -1.2656,-93 -1.6622,-8.4876 -3.5322,-19.9184 -5.1504,-30.88867 z"></path> <path id="path1461" style="fill:#000000" d="m 1059.6387,195.62305 c -0.358,0.41518 -0.7445,0.81508 -1.0801,1.24218 -0.7326,0.93215 -1.4144,1.8912 -2.0449,2.875 -0.6306,0.98382 -1.2116,1.99105 -1.7461,3.01954 -0.5345,1.02847 -1.0206,2.07838 -1.4649,3.14453 -0.4443,1.06615 -0.845,2.14928 -1.205,3.24609 -0.3601,1.09682 -0.6813,2.20765 -0.9629,3.32813 -0.2817,1.12046 -0.5252,2.24959 -0.7344,3.38671 -0.4184,2.27428 -0.6973,4.57611 -0.8613,6.875 -0.164,2.29891 -0.2132,4.59576 -0.17,6.86329 0.043,2.26751 0.1778,4.50541 0.3809,6.68554 0.2031,2.18014 0.4752,4.30312 0.791,6.33985 0.3159,2.03671 0.6773,3.98692 1.0586,5.82421 0.3813,1.83731 0.7822,3.56071 1.1816,5.14258 0.6958,2.75461 1.34,4.84067 1.8946,6.58789 0.2308,-0.0171 0.4693,0.0872 0.7363,0.84375 7.3803,20.9143 13.3092,28.45521 36.9512,46.9961 6.5245,5.11672 13.8248,11.40321 16.2246,13.96875 2.3997,2.56551 6.738,5.93122 9.6387,7.48047 11.1526,5.95643 19.5323,12.75706 21.875,17.75195 1.219,2.59902 3.2966,5.73974 4.6152,6.97851 1.3186,1.23878 3.7261,4.57459 5.3496,7.41211 1.6235,2.83754 6.85,9.14683 11.6152,14.02149 4.7653,4.87464 8.5755,9.23412 8.4668,9.6875 -0.1086,0.45338 0.1939,0.58176 0.6739,0.28516 0.4799,-0.29663 3.7542,1.82484 7.2754,4.71484 6.6444,5.45358 22.9722,17.89277 30.539,23.26562 2.393,1.69922 4.0291,3.41038 3.6367,3.80274 -0.3923,0.39235 -0.037,0.45369 0.7891,0.13672 2.3882,-0.91644 11.7027,7.65373 16.1719,13.96875 a 76.707298,83.617867 0 0 1 2.582,-3.42969 76.707298,83.617867 0 0 1 11.6231,-10.39844 76.707298,83.617867 0 0 1 11.1503,-6.49804 c -0.8071,-0.77248 -1.6515,-1.7114 -2.8671,-3.00196 -2.8727,-3.04974 -9.4977,-9.85821 -14.7227,-15.13086 -9.7853,-9.87447 -22.4632,-27.37415 -29.3691,-40.53906 -4.6313,-8.82887 -17.9252,-25.49644 -25.4121,-31.85938 -3.1448,-2.67261 -7.8689,-6.87734 -10.4961,-9.34374 -5.4912,-5.15497 -12.5237,-10.35306 -18.0606,-13.34961 -2.1107,-1.14233 -5.2607,-3.69129 -7,-5.66407 -7.5078,-8.51567 -13.5276,-16.69183 -12.9629,-17.60547 0.3354,-0.5428 0.1245,-0.68695 -0.4687,-0.32031 -0.6057,0.37437 -3.1257,-1.93952 -5.7481,-5.27734 -2.5683,-3.26905 -7.2903,-8.22092 -10.4922,-11.00586 -4.1843,-3.63941 -6.3117,-6.40078 -7.5644,-9.81836 -11.1236,-30.34685 -27.8091,-49.36343 -45.4258,-51.76758 -1.5962,-0.21783 -2.8188,-0.58422 -4.3613,-0.86523 z"></path> </g> <path id="path1452" style="fill:#000000" d="m 1015.4941,181.05664 h -2.4043 c 0,0 -3.8887,0.69098 -10.3242,1.5332 -3.21771,0.42112 -7.07196,0.87939 -11.39646,1.3086 -4.3245,0.42921 -9.1183,0.83047 -14.21484,1.13281 -5.09654,0.30234 -10.49545,0.50638 -16.0293,0.54687 -2.76692,0.0202 -5.56737,2.2e-4 -8.38086,-0.0703 -2.81349,-0.0705 -5.64077,-0.19098 -8.45898,-0.36914 -2.81822,-0.17816 -5.62711,-0.41412 -8.40821,-0.71679 -2.78109,-0.30268 -5.53419,-0.67314 -8.23633,-1.11719 -2.70213,-0.44406 -5.3542,-0.96214 -7.93554,-1.56446 -2.58134,-0.60231 -5.09107,-1.28896 -7.50977,-2.0664 -1.21499,-0.39054 -2.39579,-0.65044 -3.59375,-0.97461 -16.18036,7.65451 -40.57052,16.25935 -52.5664,17.74805 -2.98877,0.3709 -5.91767,1.35061 -8.8125,2.59765 0.26808,0.64341 0.20057,0.44777 0.48828,1.14649 1.36051,3.30411 2.92664,7.20122 4.5625,11.46093 1.63586,4.25972 3.34116,8.88181 4.98242,13.63282 1.64126,4.75101 3.21704,9.63019 4.59375,14.4082 0.68836,2.389 1.32683,4.75381 1.89844,7.0625 0.5716,2.30869 1.07693,4.56207 1.49804,6.73242 0.42112,2.17035 0.75922,4.25651 0.9961,6.23047 0.23687,1.97396 0.37173,3.83515 0.39062,5.55469 0.0189,1.71954 -0.0797,3.29799 -0.3125,4.70508 -0.0946,0.57163 -0.22714,1.09409 -0.36719,1.60742 0.12934,2.31496 0.25757,4.24113 0.39454,7.41406 0.93178,21.58476 2.28245,32.92828 4.58203,38.5 0.45399,1.1 1.37465,4.475 2.04492,7.5 0.67028,3.025 2.48873,9.77501 4.04101,15 7.91778,26.65122 10.43688,57.51072 5.51172,67.5 -2.04175,4.14113 -2.47019,6.50776 -2.49609,13.77539 -0.0283,7.93456 -0.3546,9.41905 -3.40234,15.5 -3.47398,6.93139 -8.38979,22.57597 -9.12891,29.05273 -0.23044,2.01926 -0.89607,8.39689 -1.47852,14.17188 -0.65339,6.47839 -1.75138,14.73427 -2.96679,23.06641 1.87204,1.65156 3.8522,3.343 5.98633,5.06054 2.2628,1.82111 4.67048,3.66439 7.21875,5.5 2.54826,1.83562 5.23626,3.66441 8.06054,5.45313 2.82429,1.78871 5.78415,3.53835 8.875,5.21875 3.09086,1.6804 6.31413,3.29206 9.66211,4.80273 1.67399,0.75534 3.37874,1.48416 5.11524,2.18555 1.73649,0.70139 3.50491,1.3739 5.30273,2.01367 1.79783,0.63977 3.62445,1.24789 5.48242,1.81836 1.85797,0.57047 3.74713,1.10417 5.66407,1.59766 1.91693,0.49349 3.86316,0.94663 5.83789,1.35547 1.97472,0.40883 3.97648,0.77333 6.00781,1.08984 2.03132,0.31651 4.09098,0.58428 6.17773,0.80078 2.08675,0.2165 4.20081,0.38141 6.3418,0.49023 1.03321,0.0525 2.09303,0.0501 3.13867,0.0762 0.092,-0.66245 0.49647,-2.53117 0.54883,-3.0293 1.11111,-10.57002 0.70639,-10.01678 7.20508,-9.86328 5.76923,0.13628 5.76941,0.13496 6.95117,9.54492 0.13676,1.08897 0.31452,1.70413 0.47656,2.82617 0.49958,-0.0441 1.01078,-0.069 1.50781,-0.11719 2.19667,-0.21312 4.36762,-0.46677 6.51368,-0.75781 2.14605,-0.29103 4.26723,-0.61913 6.36132,-0.98242 2.09409,-0.36328 4.16235,-0.76152 6.20313,-1.19141 4.08155,-0.85977 8.05387,-1.84719 11.91406,-2.93945 3.86018,-1.09226 7.60828,-2.28882 11.23638,-3.56836 3.628,-1.27953 7.1363,-2.64091 10.5214,-4.0625 3.3851,-1.42159 6.646,-2.90344 9.7774,-4.42187 3.1313,-1.51844 6.1332,-3.07447 9,-4.64453 2.8668,-1.57006 5.5999,-3.154 8.1914,-4.73047 2.5914,-1.57647 5.0423,-3.14593 7.3476,-4.6836 0.4084,-0.27238 0.7473,-0.52655 1.1465,-0.79687 -1.7272,-11.70975 -3.1663,-22.90498 -3.7168,-29.74024 -0.7079,-8.79068 -1.8889,-15.72888 -3.5722,-21 -1.3826,-4.32955 -2.5154,-8.41981 -2.5254,-9.08984 -0.01,-0.67002 -1.8546,-4.94502 -4.1035,-9.5 -4.0034,-8.10857 -4.0749,-8.44268 -3.4766,-16.01563 0.5708,-7.22579 0.414,-8.12544 -2.3887,-13.67773 -5.8787,-11.64546 -3.5013,-39.17461 6.0899,-70.48828 1.6679,-5.44561 3.4197,-11.97061 3.8906,-14.5 0.4709,-2.5294 1.5323,-7.2525 2.3594,-10.49609 2.2712,-8.90728 3.5456,-21.59152 3.6875,-36.70508 0.095,-10.14716 0.7055,-15.64818 1.6035,-15.71485 -0.5546,-1.74723 -1.1988,-3.83328 -1.8946,-6.58789 -0.3995,-1.58187 -0.8003,-3.30527 -1.1816,-5.14258 -0.3813,-1.8373 -0.7427,-3.78749 -1.0586,-5.82421 -0.3158,-2.03673 -0.5879,-4.15971 -0.791,-6.33985 -0.2031,-2.18013 -0.3377,-4.41802 -0.3809,-6.68554 -0.043,-2.26753 0.01,-4.56438 0.17,-6.86329 0.164,-2.2989 0.4429,-4.60072 0.8613,-6.875 0.2092,-1.13713 0.4527,-2.26624 0.7344,-3.38671 0.2816,-1.12048 0.6028,-2.23131 0.9629,-3.32813 0.36,-1.09681 0.7607,-2.17994 1.205,-3.24609 0.4443,-1.06615 0.9304,-2.11605 1.4649,-3.14453 0.5345,-1.02849 1.1155,-2.03572 1.7461,-3.01954 0.6305,-0.98381 1.3123,-1.94285 2.0449,-2.875 0.3356,-0.4271 0.7221,-0.827 1.0801,-1.24218 -7.1489,-1.30238 -13.5161,-3.01308 -12.9785,-3.88282 0.3795,-0.61409 0.1669,-0.75267 -0.5137,-0.33203 -0.6391,0.39497 -5.0421,-0.65876 -9.7852,-2.34375 -4.7432,-1.685 -8.8156,-3.06445 -9.0508,-3.06445 -0.2352,0 -0.1543,-0.44458 0.1817,-0.98828 0.3363,-0.54406 -0.018,-0.7472 -0.7891,-0.45117 -1.2146,0.46609 -6.0646,-1.3045 -11.209,-3.50391 z" inkscape:label="dos" class="svgHover" data-type="SVGdos" data-tooltip="Dos"></path> <path id="path1450" style="fill:#000000" d="m 959.23047,38.523438 c -7.82198,0.392139 -16.10708,3.139464 -24.29297,8.591796 -12.84645,8.556565 -16.96041,18.370468 -17.03711,40.636719 -0.0419,12.16177 -0.0591,12.246679 -2.27148,11.691406 -4.29506,-1.077991 -5.49317,3.601911 -4.1543,16.226561 1.18693,11.19185 4.5758,17.33008 9.57031,17.33008 3.40485,0 3.82169,1.9182 4.58008,21.10938 0.53783,13.61004 0.53848,13.61155 -3.29297,16.8125 -2.60256,2.17428 -6.23036,3.71019 -12.28973,6.57672 1.19796,0.32417 0.93802,1.78469 2.15301,2.17523 2.4187,0.77744 4.92843,1.46409 7.50977,2.0664 2.58134,0.60232 5.23341,1.1204 7.93554,1.56446 2.70214,0.44405 5.45524,0.81451 8.23633,1.11719 2.7811,0.30267 5.58999,0.53863 8.40821,0.71679 2.81821,0.17816 5.64549,0.29862 8.45898,0.36914 2.81349,0.0705 5.61394,0.0906 8.38086,0.0703 5.53385,-0.0405 10.93276,-0.24453 16.0293,-0.54687 5.09654,-0.30234 9.89034,-0.7036 14.21484,-1.13281 4.3245,-0.42921 8.17875,-0.88748 11.39646,-1.3086 6.4355,-0.84222 10.3242,-1.5332 10.3242,-1.5332 h 2.4043 c -7.8694,-3.36452 -16.65014,-7.99561 -15.89058,-9.22461 0.27493,-0.44485 -0.10715,-0.57592 -0.84961,-0.29101 -0.74246,0.28491 -2.40526,-0.6053 -3.69532,-1.97852 -4.2972,-4.57416 -1.27258,-36.5625 3.45703,-36.5625 5.52458,0 9.46548,-8.62971 9.76558,-21.38281 0.2346,-9.97016 -0.9387,-13.202336 -4.4609,-12.281252 C 1002.144,99.774286 1002,98.966419 1002,89.089844 1002,57.36204 982.69641,37.347018 959.23047,38.523438 Z" sodipodi:nodetypes="sssssssscssssssssssccssssssss" inkscape:label="cou" class="svgHover" data-type="SVGcou" data-tooltip="Tête et cou"></path> </g> </svg>