<svg version="1.1" id="svg83" height="100%" viewBox="0 0 1920 1038" sodipodi:docname="body_00001.jpg" inkscape:export-filename="front.svg" inkscape:export-xdpi="96" inkscape:export-ydpi="96" xmlns:inkscape="http://www.inkscape.org/namespaces/inkscape" xmlns:sodipodi="http://sodipodi.sourceforge.net/DTD/sodipodi-0.dtd" xmlns="http://www.w3.org/2000/svg" xmlns:svg="http://www.w3.org/2000/svg">
    <g id="paths_handler" inkscape:groupmode="layer" inkscape:label="Image">
        <path id="path1063" style="fill:#000000" d="M 961.14258,39.160156 C 952.88929,39.009513 944.1023,41.454393 935.5,47.03125 923.50184,54.809633 918.85371,65.079091 918.20312,85.25 c -0.4757,14.749925 -0.4744,14.75 -2.86328,14.75 -3.8509,0 -4.7274,3.83009 -3.51172,15.35156 1.18693,11.24842 4.26779,17.64844 8.4961,17.64844 5.50536,0 8.83101,31.68999 3.80273,36.23828 -4.98859,4.51246 -19.67503,11.43526 -34.5332,17.1211 l 144.61715,1.43164 C 1019.9852,182.7737 1005.164,176.56409 999.76172,172.78516 991.62704,167.09481 990.53076,133 998.48242,133 c 5.12968,0 8.48258,-7.3983 9.21488,-20.33008 0.6262,-11.05746 -0.3148,-13.52564 -4.7149,-12.375 -1.8825,0.4923 -1.985,0.19486 -1.4179,-4.132811 4.2886,-32.732659 -15.66206,-56.550023 -40.42192,-57.001953 z" inkscape:label="cou" class="svgHover" data-type="SVGcou" data-tooltip="Tête et cou"></path>
        <path id="path1070" style="fill:#000000" d="m 1040.9902,435.36328 -61.8945,5.62695 -82.55078,-4.58593 33.19727,26.875 15.91992,35.02343 9.64844,32.80274 c 3.37467,-3.66626 8.43239,-4.1184 10.40625,0.1543 l 21.33789,-44.09961 19.10551,-35.02539 36.9843,-11.88868 c -1.0082,-1.98593 -1.6853,-3.44956 -2.1543,-4.88281 z" inkscape:label="uro" data-tooltip="Uro-génital" class="svgHover" data-type="SVGuro"></path> 
        <path id="path1068" style="fill:#000000" d="m 1048.5391,297.64453 -178.30082,-3.04687 c 0.39708,3.79923 0.82892,7.23753 1.2207,9.40234 0.8461,4.675 1.53832,10.56308 1.53907,13.08398 7.5e-4,2.52092 1.77105,11.07095 3.93359,19 4.65264,17.05912 6.06841,26.44988 6.06641,40.23829 -7e-4,5.59767 0.50449,13.78839 1.12109,18.20117 1.10768,7.92719 1.08171,8.11192 -2.06055,15.49609 -2.57448,6.04998 -3.05811,8.31789 -2.99023,14.14649 l 12.30273,10.54687 4.93946,1.50195 0.23437,0.18946 82.55078,4.58593 61.8945,-5.62695 c -0.8516,-2.60295 -0.9902,-5.09606 -0.9902,-10.36719 0,-7.81049 -0.3644,-9.7815 -2.6387,-14.26953 -3.0018,-5.92382 -2.9963,-5.82638 -1.5742,-32.72656 1.0516,-19.89008 2.1854,-26.76446 7.3281,-44.38086 1.5863,-5.434 2.8933,-11.95903 2.9043,-14.5 0.011,-2.54098 0.4302,-7.31914 0.9297,-10.61914 0.6621,-4.37357 1.1668,-7.82298 1.5899,-10.85547 z" inkscape:label="abdomen" class="svgHover" data-type="SVGabdomen" data-tooltip="Abdomen"></path> <g id="g1092" inkscape:label="extremites" class="svgHover" data-type="SVGextremites" data-tooltip="Extrémités supérieurs"> 
        <path id="path1083" style="fill:#000000" d="m 661.29297,414.34766 c -4.55531,3.35963 -8.94967,4.66422 -16.10352,5.5625 -4.67252,0.58671 -9.25444,1.96096 -12.95898,3.88867 C 624.77544,427.67814 614.10598,432 611.98242,432 c -3.05436,0 -5.31983,3.48874 -3.82226,5.88672 2.01607,3.22833 5.59874,3.95974 12.33984,2.52148 9.46824,-2.02006 10.5,-1.87838 10.5,1.44336 0,2.66835 -14.68368,23.52968 -22.98047,32.64844 -7.52832,8.27412 -10.85508,15.85794 -7.51758,17.13867 3.21966,1.2355 6.4181,-0.91509 13.91993,-9.36133 13.32928,-15.0073 18.52297,-17.88353 11.8457,-6.56054 -12.90682,21.88662 -16.78384,32.20314 -13.01758,34.64062 3.25202,2.10467 7.62622,-3.1324 20.69922,-24.77539 6.26545,-10.37281 10.41168,-12.16032 6.49609,-2.80078 -1.66565,3.98149 -6.12659,22.07896 -6.46289,26.21875 -0.99836,12.28949 6.87885,10.21365 10.63672,-2.80273 6.30815,-21.85017 12.37405,-33.22688 10.69141,-20.05079 -1.0479,8.20576 -0.63248,18.76206 0.80664,20.4961 3.21521,3.8741 6.86879,0.26245 6.90429,-6.82617 0.0429,-8.56307 2.58284,-21.76341 4.63477,-24.08203 4.8959,-5.53231 13.75639,-23.05663 20.46094,-40.47071 0.19433,-0.50476 0.49313,-1.05706 0.76953,-1.59961 z"></path> 
        <path id="path1077" style="fill:#000000" d="m 1228.5977,431.29883 c 2.0694,3.54812 4.0102,7.76513 6.3789,13.5332 4.7419,11.54758 13.148,27.12888 17.0839,31.66797 1.2118,1.39738 2.0894,5.31447 2.9141,13 1.488,13.86691 2.1226,16.52835 4.2637,17.87891 4.5521,2.87102 7.1372,-10.83458 4.457,-23.62891 -2.6041,-12.4313 3.9888,0.20207 9.7852,18.75 4.5239,14.47597 7.407,17.65401 11.0156,12.14648 1.8904,-2.88504 -0.9552,-19.95198 -5.0547,-30.3164 -3.8881,-9.82976 -1.4092,-10.59847 4.3398,-1.3457 16.9271,27.24087 19.7089,30.38293 23.5235,26.56835 2.4426,-2.44259 -3.2014,-15.84132 -14.0449,-33.34179 -6.0814,-9.81489 -2.5955,-10.44377 5.2617,-0.94922 8.0337,9.70794 15.801,16.73828 18.4941,16.73828 6.3794,0 4.1513,-5.50372 -8.5058,-21 -14.6862,-17.9807 -20.5879,-26.98589 -19.7598,-30.15234 0.5801,-2.21833 1.4578,-2.21349 12.25,0.0586 3.6625,0.77107 5.0571,0.62537 7.4961,-0.7832 5.3172,-3.07072 3.9589,-7.17465 -2.8262,-8.53711 -3.0474,-0.61191 -5.773,-1.74887 -18.1699,-7.58399 -5.7464,-2.70472 -9.8903,-3.92775 -14.709,-4.34179 -4.6806,-0.40218 -8.1646,-1.30916 -11.6191,-3.32813 z"></path> </g> <g id="g1102" inkscape:label="articulations" class="svgHover" data-type="SVGarticulations" data-tooltip="Membres et articulations"> 
        <path id="path253" style="fill:#000000" d="m 1043.1445,440.24609 -36.9843,11.88868 -19.10551,35.02539 -21.33789,44.09961 c 0.35523,0.76896 0.62833,1.66177 0.75195,2.74023 1.92426,16.78676 10.66153,56.63808 13.63672,62.19727 2.29789,4.29365 8.01978,27.87735 8.91797,36.75781 2.36409,23.3738 4.48528,31.14187 14.23046,52.0918 11.3206,24.33649 13.6612,38.95996 10.1914,63.67773 -1.9968,14.22492 -0.1855,28.08223 6.1113,46.77539 8.1589,24.22141 10.4334,42.29737 9.8164,78 -0.3529,20.42327 -0.1549,25.91534 1.086,30 0.8353,2.75 1.5193,8.19346 1.5293,12.0957 0.01,5.81638 0.3721,7.42051 2.0117,8.9043 1.4962,1.35403 2.0036,3.09276 2.0156,6.9043 0.026,8.50522 2.4363,16.74829 5.6582,19.35156 3.3427,2.70079 3.3293,2.68855 7.8008,7.49414 3.8727,4.16204 11.9036,5.53462 13.1641,2.25 0.3166,-0.825 0.9775,-1.5 1.4687,-1.5 0.4911,0 0.8926,0.675 0.8926,1.5 0,2.06577 6.8424,2.07296 7.6348,0.008 0.375,-0.97718 1.352,-1.29771 2.8261,-0.92773 1.2811,0.32154 2.8518,-0.0278 3.6446,-0.81055 0.7666,-0.75679 3.1945,-2.08864 5.3945,-2.95898 8.9452,-3.53876 6.8947,-16.56476 -4.9883,-31.69336 -18.0766,-23.01388 -23.3027,-53.45011 -15.5605,-90.61719 1.0312,-4.95 2.6432,-12.825 3.582,-17.5 0.9389,-4.675 3.6654,-14.57835 6.0586,-22.00781 7.616,-23.64324 7.1179,-45.83168 -1.5137,-67.49219 -11.1065,-27.87157 -13.7498,-52.0534 -9.5117,-87 5.7952,-47.78564 5.5916,-69.05783 -1.0019,-105 -3.1101,-16.9533 -5.1265,-31.01042 -7.5293,-52.5 -2.1073,-18.8475 -5.1144,-30.38271 -10.875,-41.7207 -0.01,-0.0129 -0.01,-0.0203 -0.016,-0.0332 z"></path> 
        <path id="path1060" style="fill:#000000" d="m 955.31055,531.10547 -9.64844,-32.80274 -15.91992,-35.02343 -33.43164,-27.06446 -17.34961,-5.27929 c -0.27047,3.33597 -1.16178,5.65801 -3.82617,11.31836 -5.62983,11.96018 -8.56669,25.13936 -11.63868,52.24609 -1.43359,12.64998 -3.9058,29.97502 -5.49414,38.5 -5.78574,31.0534 -7.10212,53.4145 -4.50586,76.5 7.63481,67.88686 6.73116,84.10389 -6.54297,117.5 -7.90865,19.89723 -8.61519,45.42309 -1.79882,65 6.65364,19.1096 14.33134,58.79932 14.21875,73.5 -0.15093,19.70557 -8.8894,44.48939 -21.625,61.32812 -7.24422,9.57809 -9.71343,18.40421 -7.28711,26.04883 0.57027,1.79676 6.26151,4.41333 7.68554,3.53321 0.4694,-0.2901 0.85352,0.17379 0.85352,1.03125 0,1.44734 1.44975,1.97895 4.90625,1.80078 0.77356,-0.0399 2.04404,0.56552 2.82227,1.34375 2.24813,2.24815 6.79108,1.776 8.05078,-0.83594 0.78897,-1.63593 1.10314,-1.80202 1.15234,-0.60742 0.23818,5.78213 17.04192,1.35727 17.07422,-4.4961 0.003,-0.63051 1.37359,-1.923 3.04297,-2.87304 3.96768,-2.25801 5.78586,-6.85826 6.8457,-17.31446 0.55193,-5.44524 1.45068,-9.18394 2.48438,-10.32617 1.10026,-1.21577 1.62109,-3.64391 1.62109,-7.5664 0,-3.1773 0.64824,-8.31765 1.44141,-11.42188 1.82908,-7.15893 2.13785,-16.23058 1.11132,-32.64453 -1.583,-25.31196 2.37675,-54.28733 10.79493,-79 5.27244,-15.47796 7.40756,-30.81973 5.77734,-41.50586 -3.98311,-26.10948 -1.70567,-41.64315 9.79102,-66.80859 9.76002,-21.36401 12.83315,-32.50605 14.55468,-52.76563 0.69576,-8.18789 5.21121,-27.16005 8.54883,-35.91992 4.13888,-10.86284 11.18404,-42.17088 13.16406,-58.5 0.35532,-2.93027 1.58235,-5.21647 3.12696,-6.89453 z"></path> 
        <path id="path1081" style="fill:#000000" d="m 661.29297,414.34766 27.59375,19.3164 c 3.06867,-6.0236 10.9456,-14.15038 19.5918,-20.01367 13.53844,-9.18091 53.15988,-41.93957 59.02148,-48.79883 3.99089,-4.67005 13.10873,-17.60594 17.68164,-25.08594 3.79822,-6.21272 7.62891,-9.31293 22.07227,-17.86132 3.71504,-2.19881 7.76509,-5.36913 9,-7.04492 1.23491,-1.67583 8.115,-7.69152 15.28906,-13.36915 16.80045,-13.29595 26.12933,-23.1135 30.76172,-32.37304 2.10502,-4.2077 3.47435,-6.19065 4.4414,-5.40235 l 0.90821,-2.62304 -2.11914,-12.1875 -10.58008,-52.89649 c -12.10321,0.15715 -31.84552,22.39984 -39,43.99219 -2.87643,8.68104 -3.67792,10.01968 -9.30078,15.5332 -9.86175,9.66998 -18.85573,19.42588 -25.05469,27.17969 -3.92189,4.90559 -8.3799,8.97286 -13.93359,12.71289 -7.3406,4.94333 -17.21795,13.27597 -29.4668,24.85742 -5.39665,5.1026 -16.90014,20.45388 -20.76953,27.7168 -6.12325,11.49334 -24.00286,34.83617 -32.76563,42.77734 -3.57284,3.23789 -9.32363,9.13956 -12.77929,13.11524 -4.24417,4.88276 -7.45571,8.14215 -10.5918,10.45508 z"></path> 
        <path id="path1086" style="fill:#000000" d="m 1228.5977,431.29883 32.5742,-14.9668 c -3.2131,-1.87785 -6.4004,-4.71431 -10.5078,-9.08789 -3.9405,-4.19589 -11.223,-11.70605 -16.1836,-16.6875 -12.5709,-12.62371 -26.591,-31.01111 -32.5489,-42.68945 -2.1977,-4.30784 -11.1642,-16.90211 -16.2812,-22.86719 -7.2871,-8.49486 -32.0946,-29.42316 -38.1445,-32.17969 -1.4108,-0.6428 -6.0903,-5.47729 -10.3985,-10.74414 -4.3082,-5.26681 -13.0489,-14.90183 -19.4238,-21.41211 -11.2857,-11.52534 -11.6601,-12.05175 -14.2246,-20 -7.7693,-24.07973 -25.4534,-43.05837 -42.0567,-45.13281 -0.8494,-0.10613 -1.8236,-0.27366 -2.8828,-0.48437 l -2.3105,72.74414 c 4.5501,10.02519 13.3565,19.39986 32.039,34.12695 6.4616,5.09338 13.2116,10.96982 15,13.05859 1.7884,2.08877 5.052,4.8108 7.252,6.04883 13.3593,7.51774 20.7135,13.46764 23.5273,19.03516 1.5454,3.05786 3.5795,6.1987 4.5215,6.98047 0.942,0.78172 3.692,4.42442 6.1094,8.09375 4.5257,6.86959 15.9203,18.5574 27.3418,28.04492 14.9831,12.44605 31.5537,25.58824 37.0703,29.40234 10.4536,7.22753 15.2811,11.4367 19.5274,18.7168 z"></path> </g> 
        <path id="path1075" style="fill:#000000" d="M 1034.2109,187.79102 889.59375,186.35938 C 875.55898,191.73011 861.37001,196 855.08594,196 c -0.0428,0 -0.0879,0.007 -0.13086,0.008 l 14.29101,71.45313 1.5918,27.06445 8.94531,0.23633 168.7559,2.88281 c 1.133,-8.1207 1.5687,-12.72912 2.0293,-20.14453 0.876,-14.10372 2.3562,-17.64665 4.8086,-11.51758 0.2435,0.6088 0.5584,1.20587 0.832,1.8086 l 2.3105,-72.74414 c -5.9625,-1.18629 -15.0086,-3.97587 -24.3086,-7.25586 z" inkscape:label="thorax" class="svgHover" data-type="SVGthorax" data-tooltip="Thorax"></path>
    </g>
</svg>