<svg id="rotate" class="cursor-pointer" width="32" height="32" viewBox="0 0 32 32" fill="none" xmlns="http://www.w3.org/2000/svg">
    <rect width="32" height="32" rx="4.77" transform="matrix(-1 0 0 1 32 0)" fill="white"></rect>
    <path d="M15.9976 10C21.6978 10 25.998 12.1 25.998 15C25.998 17.4 22.7979 19.4 18.2977 19.9L18.6977 20.3C19.0977 20.7 19.0977 21.3 18.6977 21.7C18.2977 22.1 17.6976 22.1 17.2976 21.7L15.2975 19.7C15.1975 19.6 15.0975 19.5 15.0975 19.4C14.9975 19.2 14.9975 18.9 15.0975 18.6C15.0975 18.5 15.1975 18.4 15.2975 18.3L17.2976 16.3C17.6976 15.9 18.2977 15.9 18.6977 16.3C19.0977 16.7 19.0977 17.3 18.6977 17.7L18.5977 17.8C21.9979 17.3 23.9979 16 23.9979 15C23.9979 13.8 20.8978 12 15.9976 12C11.0973 12 7.99717 13.8 7.99717 15C7.99717 15.8 9.49724 17 12.1974 17.6C12.6974 17.7 13.0974 18.2 12.9974 18.8C12.8974 19.3 12.3974 19.7 11.7974 19.6C8.19718 18.8 5.99707 17.1 5.99707 15C5.99707 12.1 10.2973 10 15.9976 10Z" fill="#20a8d3"></path>
</svg>